<mxfile host="app.diagrams.net" agent="Mozilla/5.0 (Windows NT 10.0; Win64; x64) AppleWebKit/537.36 (KHTML, like Gecko) Chrome/131.0.0.0 Safari/537.36" version="24.8.6">
  <diagram name="Сторінка-1" id="EaS7YQyv9x85QAPkl2Dk">
    <mxGraphModel dx="1432" dy="820" grid="1" gridSize="10" guides="1" tooltips="1" connect="1" arrows="1" fold="1" page="1" pageScale="1" pageWidth="827" pageHeight="1169" math="0" shadow="0">
      <root>
        <mxCell id="0" />
        <mxCell id="1" parent="0" />
        <mxCell id="ORHMoJ6zm3g9ehPedxOI-9" style="edgeStyle=orthogonalEdgeStyle;rounded=0;orthogonalLoop=1;jettySize=auto;html=1;entryX=0.5;entryY=0;entryDx=0;entryDy=0;" edge="1" parent="1" source="ORHMoJ6zm3g9ehPedxOI-1" target="ORHMoJ6zm3g9ehPedxOI-2">
          <mxGeometry relative="1" as="geometry" />
        </mxCell>
        <mxCell id="ORHMoJ6zm3g9ehPedxOI-1" value="start" style="ellipse;whiteSpace=wrap;html=1;" vertex="1" parent="1">
          <mxGeometry x="354" y="20" width="120" height="80" as="geometry" />
        </mxCell>
        <mxCell id="ORHMoJ6zm3g9ehPedxOI-10" style="edgeStyle=orthogonalEdgeStyle;rounded=0;orthogonalLoop=1;jettySize=auto;html=1;" edge="1" parent="1" source="ORHMoJ6zm3g9ehPedxOI-2" target="ORHMoJ6zm3g9ehPedxOI-3">
          <mxGeometry relative="1" as="geometry" />
        </mxCell>
        <mxCell id="ORHMoJ6zm3g9ehPedxOI-2" value="return log(sin(m * x)) / sin(x);" style="rounded=0;whiteSpace=wrap;html=1;" vertex="1" parent="1">
          <mxGeometry x="354" y="180" width="120" height="60" as="geometry" />
        </mxCell>
        <mxCell id="ORHMoJ6zm3g9ehPedxOI-11" style="edgeStyle=orthogonalEdgeStyle;rounded=0;orthogonalLoop=1;jettySize=auto;html=1;" edge="1" parent="1" source="ORHMoJ6zm3g9ehPedxOI-3" target="ORHMoJ6zm3g9ehPedxOI-4">
          <mxGeometry relative="1" as="geometry" />
        </mxCell>
        <mxCell id="ORHMoJ6zm3g9ehPedxOI-3" value="&amp;nbsp;double Z = calculateZ(m, x);" style="rounded=0;whiteSpace=wrap;html=1;" vertex="1" parent="1">
          <mxGeometry x="354" y="320" width="120" height="60" as="geometry" />
        </mxCell>
        <mxCell id="ORHMoJ6zm3g9ehPedxOI-13" style="edgeStyle=orthogonalEdgeStyle;rounded=0;orthogonalLoop=1;jettySize=auto;html=1;entryX=0.5;entryY=0;entryDx=0;entryDy=0;" edge="1" parent="1" source="ORHMoJ6zm3g9ehPedxOI-4" target="ORHMoJ6zm3g9ehPedxOI-5">
          <mxGeometry relative="1" as="geometry" />
        </mxCell>
        <mxCell id="ORHMoJ6zm3g9ehPedxOI-4" value="ofstream fout(&quot;result2.txt&quot;);" style="rounded=0;whiteSpace=wrap;html=1;" vertex="1" parent="1">
          <mxGeometry x="354" y="450" width="120" height="60" as="geometry" />
        </mxCell>
        <mxCell id="ORHMoJ6zm3g9ehPedxOI-5" value="&amp;nbsp;fout &amp;lt;&amp;lt; &quot;Z = &quot; &amp;lt;&amp;lt; Z &amp;lt;&amp;lt; endl;" style="rounded=0;whiteSpace=wrap;html=1;" vertex="1" parent="1">
          <mxGeometry x="354" y="560" width="120" height="60" as="geometry" />
        </mxCell>
        <mxCell id="ORHMoJ6zm3g9ehPedxOI-6" value="fout.close();" style="rounded=0;whiteSpace=wrap;html=1;" vertex="1" parent="1">
          <mxGeometry x="350" y="680" width="120" height="60" as="geometry" />
        </mxCell>
        <mxCell id="ORHMoJ6zm3g9ehPedxOI-16" style="edgeStyle=orthogonalEdgeStyle;rounded=0;orthogonalLoop=1;jettySize=auto;html=1;entryX=0.5;entryY=0;entryDx=0;entryDy=0;" edge="1" parent="1" source="ORHMoJ6zm3g9ehPedxOI-7" target="ORHMoJ6zm3g9ehPedxOI-8">
          <mxGeometry relative="1" as="geometry" />
        </mxCell>
        <mxCell id="ORHMoJ6zm3g9ehPedxOI-7" value="out &amp;lt;&amp;lt; &quot;Результат записано у файл result2.txt&quot; &amp;lt;&amp;lt; endl;" style="shape=parallelogram;perimeter=parallelogramPerimeter;whiteSpace=wrap;html=1;fixedSize=1;" vertex="1" parent="1">
          <mxGeometry x="354" y="810" width="120" height="60" as="geometry" />
        </mxCell>
        <mxCell id="ORHMoJ6zm3g9ehPedxOI-8" value="end" style="ellipse;whiteSpace=wrap;html=1;" vertex="1" parent="1">
          <mxGeometry x="354" y="950" width="120" height="80" as="geometry" />
        </mxCell>
        <mxCell id="ORHMoJ6zm3g9ehPedxOI-14" style="edgeStyle=orthogonalEdgeStyle;rounded=0;orthogonalLoop=1;jettySize=auto;html=1;entryX=0.567;entryY=0.083;entryDx=0;entryDy=0;entryPerimeter=0;" edge="1" parent="1" source="ORHMoJ6zm3g9ehPedxOI-5" target="ORHMoJ6zm3g9ehPedxOI-6">
          <mxGeometry relative="1" as="geometry" />
        </mxCell>
        <mxCell id="ORHMoJ6zm3g9ehPedxOI-15" style="edgeStyle=orthogonalEdgeStyle;rounded=0;orthogonalLoop=1;jettySize=auto;html=1;entryX=0.433;entryY=0.067;entryDx=0;entryDy=0;entryPerimeter=0;" edge="1" parent="1" source="ORHMoJ6zm3g9ehPedxOI-6" target="ORHMoJ6zm3g9ehPedxOI-7">
          <mxGeometry relative="1" as="geometry" />
        </mxCell>
      </root>
    </mxGraphModel>
  </diagram>
</mxfile>
